<svg xmlns="http://www.w3.org/2000/svg">
  <symbol viewBox="0 0 24 24" id="play_arrow">
    <path d="M0 0h24v24H0z" fill="none"></path>
    <path d="M8 5v14l11-7z"></path>
  </symbol>
  <symbol viewBox="0 0 24 24" id="power">
    <path d="M0 0h24v24H0z" fill="none"></path>
    <path d="M16.01 7L16 3h-2v4h-4V3H8v4h-.01C7 6.99 6 7.99 6 8.99v5.49L9.5 18v3h5v-3l3.5-3.51v-5.5c0-1-1-2-1.99-1.99z"></path>
  </symbol>
  <symbol viewBox="0 0 24 24" id="power_settings_new">
    <path d="M0 0h24v24H0z" fill="none"></path>
    <path d="M13 3h-2v10h2V3zm4.83 2.17l-1.42 1.42C17.99 7.86 19 9.81 19 12c0 3.87-3.13 7-7 7s-7-3.13-7-7c0-2.19 1.01-4.14 2.58-5.42L6.17 5.17C4.23 6.82 3 9.26 3 12c0 4.97 4.03 9 9 9s9-4.03 9-9c0-2.74-1.23-5.18-3.17-6.83z"></path>
  </symbol>
  <symbol viewBox="0 0 24 24" id="refresh">
    <path d="M0 0h24v24H0z" fill="none"></path>
    <path d="M17.65 6.35C16.2 4.9 14.21 4 12 4c-4.42 0-7.99 3.58-7.99 8s3.57 8 7.99 8c3.73 0 6.84-2.55 7.73-6h-2.08c-.82 2.33-3.04 4-5.65 4-3.31 0-6-2.69-6-6s2.69-6 6-6c1.66 0 3.14.69 4.22 1.78L13 11h7V4l-2.35 2.35z"></path>
  </symbol>
  <symbol viewBox="0 0 24 24" id="repeat">
    <path d="M0 0h24v24H0z" fill="none"></path>
    <path d="M7 7h10v3l4-4-4-4v3H5v6h2V7zm10 10H7v-3l-4 4 4 4v-3h12v-6h-2v4z"></path>
  </symbol>
  <symbol viewBox="0 0 24 24" id="save">
    <path d="M0 0h24v24H0z" fill="none"></path>
    <path d="M17 3H5c-1.11 0-2 .9-2 2v14c0 1.1.89 2 2 2h14c1.1 0 2-.9 2-2V7l-4-4zm-5 16c-1.66 0-3-1.34-3-3s1.34-3 3-3 3 1.34 3 3-1.34 3-3 3zm3-10H5V5h10v4z"></path>
  </symbol>
  <symbol viewBox="0 0 24 24" id="security">
    <path d="M0 0h24v24H0z" fill="none"></path>
    <path d="M12 1L3 5v6c0 5.55 3.84 10.74 9 12 5.16-1.26 9-6.45 9-12V5l-9-4zm0 10.99h7c-.53 4.12-3.28 7.79-7 8.94V12H5V6.3l7-3.11v8.8z"></path>
  </symbol>
  <symbol enable-background="new 0 0 24 24" viewBox="0 0 24 24" id="settings">
    <g>
      <path d="M0,0h24v24H0V0z" fill="none"></path>
      <path d="M19.14,12.94c0.04-0.3,0.06-0.61,0.06-0.94c0-0.32-0.02-0.64-0.07-0.94l2.03-1.58c0.18-0.14,0.23-0.41,0.12-0.61 l-1.92-3.32c-0.12-0.22-0.37-0.29-0.59-0.22l-2.39,0.96c-0.5-0.38-1.03-0.7-1.62-0.94L14.4,2.81c-0.04-0.24-0.24-0.41-0.48-0.41 h-3.84c-0.24,0-0.43,0.17-0.47,0.41L9.25,5.35C8.66,5.59,8.12,5.92,7.63,6.29L5.24,5.33c-0.22-0.08-0.47,0-0.59,0.22L2.74,8.87 C2.62,9.08,2.66,9.34,2.86,9.48l2.03,1.58C4.84,11.36,4.8,11.69,4.8,12s0.02,0.64,0.07,0.94l-2.03,1.58 c-0.18,0.14-0.23,0.41-0.12,0.61l1.92,3.32c0.12,0.22,0.37,0.29,0.59,0.22l2.39-0.96c0.5,0.38,1.03,0.7,1.62,0.94l0.36,2.54 c0.05,0.24,0.24,0.41,0.48,0.41h3.84c0.24,0,0.44-0.17,0.47-0.41l0.36-2.54c0.59-0.24,1.13-0.56,1.62-0.94l2.39,0.96 c0.22,0.08,0.47,0,0.59-0.22l1.92-3.32c0.12-0.22,0.07-0.47-0.12-0.61L19.14,12.94z M12,15.6c-1.98,0-3.6-1.62-3.6-3.6 s1.62-3.6,3.6-3.6s3.6,1.62,3.6,3.6S13.98,15.6,12,15.6z"></path>
    </g>
  </symbol>
  <symbol viewBox="0 0 24 24" id="settings_input_component">
    <path d="M0 0h24v24H0z" fill="none"></path>
    <path d="M5 2c0-.55-.45-1-1-1s-1 .45-1 1v4H1v6h6V6H5V2zm4 14c0 1.3.84 2.4 2 2.82V23h2v-4.18c1.16-.41 2-1.51 2-2.82v-2H9v2zm-8 0c0 1.3.84 2.4 2 2.82V23h2v-4.18C6.16 18.4 7 17.3 7 16v-2H1v2zM21 6V2c0-.55-.45-1-1-1s-1 .45-1 1v4h-2v6h6V6h-2zm-8-4c0-.55-.45-1-1-1s-1 .45-1 1v4H9v6h6V6h-2V2zm4 14c0 1.3.84 2.4 2 2.82V23h2v-4.18c1.16-.41 2-1.51 2-2.82v-2h-6v2z"></path>
  </symbol>
  <symbol viewBox="0 0 24 24" id="show_chart">
    <path d="M0 0h24v24H0z" fill="none"></path>
    <path d="M3.5 18.49l6-6.01 4 4L22 6.92l-1.41-1.41-7.09 7.97-4-4L2 16.99z"></path>
  </symbol>
  <symbol viewBox="0 0 24 24" id="shuffle">
    <path d="M0 0h24v24H0z" fill="none"></path>
    <path d="M10.59 9.17L5.41 4 4 5.41l5.17 5.17 1.42-1.41zM14.5 4l2.04 2.04L4 18.59 5.41 20 17.96 7.46 20 9.5V4h-5.5zm.33 9.41l-1.41 1.41 3.13 3.13L14.5 20H20v-5.5l-2.04 2.04-3.13-3.13z"></path>
  </symbol>
  <symbol viewBox="0 0 24 24" id="speaker_notes">
    <path d="M0 0h24v24H0z" fill="none"></path>
    <path d="M20 2H4c-1.1 0-1.99.9-1.99 2L2 22l4-4h14c1.1 0 2-.9 2-2V4c0-1.1-.9-2-2-2zM8 14H6v-2h2v2zm0-3H6V9h2v2zm0-3H6V6h2v2zm7 6h-5v-2h5v2zm3-3h-8V9h8v2zm0-3h-8V6h8v2z"></path>
  </symbol>
  <symbol viewBox="0 0 24 24" id="stop">
    <path d="M0 0h24v24H0z" fill="none"></path>
    <path d="M6 6h12v12H6z"></path>
  </symbol>
  <symbol viewBox="0 0 24 24" id="storage">
    <path d="M0 0h24v24H0z" fill="none"></path>
    <path d="M2 20h20v-4H2v4zm2-3h2v2H4v-2zM2 4v4h20V4H2zm4 3H4V5h2v2zm-4 7h20v-4H2v4zm2-3h2v2H4v-2z"></path>
  </symbol>
  <symbol viewBox="0 0 24 24" id="subject">
    <path d="M0 0h24v24H0z" fill="none"></path>
    <path d="M14 17H4v2h10v-2zm6-8H4v2h16V9zM4 15h16v-2H4v2zM4 5v2h16V5H4z"></path>
  </symbol>
  <symbol viewBox="0 0 24 24" id="unfold_less">
    <path d="M0 0h24v24H0z" fill="none"></path>
    <path d="M7.41 18.59L8.83 20 12 16.83 15.17 20l1.41-1.41L12 14l-4.59 4.59zm9.18-13.18L15.17 4 12 7.17 8.83 4 7.41 5.41 12 10l4.59-4.59z"></path>
  </symbol>
  <symbol viewBox="0 0 24 24" id="unfold_more">
    <path d="M0 0h24v24H0z" fill="none"></path>
    <path d="M12 5.83L15.17 9l1.41-1.41L12 3 7.41 7.59 8.83 9 12 5.83zm0 12.34L8.83 15l-1.41 1.41L12 21l4.59-4.59L15.17 15 12 18.17z"></path>
  </symbol>
  <symbol enable-background="new 0 0 24 24" viewBox="0 0 24 24" id="update">
    <g>
      <rect fill="none" height="24" width="24" x="0"></rect>
    </g>
    <g>
      <g>
        <g>
          <path d="M21,10.12h-6.78l2.74-2.82c-2.73-2.7-7.15-2.8-9.88-0.1c-2.73,2.71-2.73,7.08,0,9.79s7.15,2.71,9.88,0 C18.32,15.65,19,14.08,19,12.1h2c0,1.98-0.88,4.55-2.64,6.29c-3.51,3.48-9.21,3.48-12.72,0c-3.5-3.47-3.53-9.11-0.02-12.58 s9.14-3.47,12.65,0L21,3V10.12z M12.5,8v4.25l3.5,2.08l-0.72,1.21L11,13V8H12.5z"></path>
        </g>
      </g>
    </g>
  </symbol>
  <symbol viewBox="0 0 24 24" id="warning">
    <path d="M0 0h24v24H0z" fill="none"></path>
    <path d="M1 21h22L12 2 1 21zm12-3h-2v-2h2v2zm0-4h-2v-4h2v4z"></path>
  </symbol>
  <symbol viewBox="0 0 24 24" id="web_asset">
    <path d="M0 0h24v24H0z" fill="none"></path>
    <path d="M19 4H5c-1.11 0-2 .9-2 2v12c0 1.1.89 2 2 2h14c1.1 0 2-.9 2-2V6c0-1.1-.89-2-2-2zm0 14H5V8h14v10z"></path>
  </symbol>
  <symbol viewBox="0 0 24 24" id="access_time">
    <path d="M0 0h24v24H0z" fill="none"></path>
    <path d="M11.99 2C6.47 2 2 6.48 2 12s4.47 10 9.99 10C17.52 22 22 17.52 22 12S17.52 2 11.99 2zM12 20c-4.42 0-8-3.58-8-8s3.58-8 8-8 8 3.58 8 8-3.58 8-8 8z"></path>
    <path d="M12.5 7H11v6l5.25 3.15.75-1.23-4.5-2.67z"></path>
  </symbol>
  <symbol viewBox="0 0 24 24" id="add_box">
    <path d="M0 0h24v24H0z" fill="none"></path>
    <path d="M19 3H5c-1.11 0-2 .9-2 2v14c0 1.1.89 2 2 2h14c1.1 0 2-.9 2-2V5c0-1.1-.9-2-2-2zm-2 10h-4v4h-2v-4H7v-2h4V7h2v4h4v2z"></path>
  </symbol>
  <symbol viewBox="0 0 24 24" id="assignment">
    <path d="M0 0h24v24H0z" fill="none"></path>
    <path d="M19 3h-4.18C14.4 1.84 13.3 1 12 1c-1.3 0-2.4.84-2.82 2H5c-1.1 0-2 .9-2 2v14c0 1.1.9 2 2 2h14c1.1 0 2-.9 2-2V5c0-1.1-.9-2-2-2zm-7 0c.55 0 1 .45 1 1s-.45 1-1 1-1-.45-1-1 .45-1 1-1zm2 14H7v-2h7v2zm3-4H7v-2h10v2zm0-4H7V7h10v2z"></path>
  </symbol>
  <symbol viewBox="0 0 24 24" id="call_made">
    <path d="M0 0h24v24H0z" fill="none"></path>
    <path d="M9 5v2h6.59L4 18.59 5.41 20 17 8.41V15h2V5z"></path>
  </symbol>
  <symbol viewBox="0 0 24 24" id="call_received">
    <path d="M0 0h24v24H0z" fill="none"></path>
    <path d="M20 5.41L18.59 4 7 15.59V9H5v10h10v-2H8.41z"></path>
  </symbol>
  <symbol viewBox="0 0 24 24" id="check">
    <path d="M0 0h24v24H0z" fill="none"></path>
    <path d="M9 16.17L4.83 12l-1.42 1.41L9 19 21 7l-1.41-1.41z"></path>
  </symbol>
  <symbol viewBox="0 0 24 24" id="clear">
    <path d="M0 0h24v24H0z" fill="none"></path>
    <path d="M19 6.41L17.59 5 12 10.59 6.41 5 5 6.41 10.59 12 5 17.59 6.41 19 12 13.41 17.59 19 19 17.59 13.41 12z"></path>
  </symbol>
  <symbol viewBox="0 0 24 24" id="close">
    <path d="M0 0h24v24H0z" fill="none"></path>
    <path d="M19 6.41L17.59 5 12 10.59 6.41 5 5 6.41 10.59 12 5 17.59 6.41 19 12 13.41 17.59 19 19 17.59 13.41 12z"></path>
  </symbol>
  <symbol viewBox="0 0 24 24" id="code">
    <path d="M0 0h24v24H0V0z" fill="none"></path>
    <path d="M9.4 16.6L4.8 12l4.6-4.6L8 6l-6 6 6 6 1.4-1.4zm5.2 0l4.6-4.6-4.6-4.6L16 6l6 6-6 6-1.4-1.4z"></path>
  </symbol>
  <symbol viewBox="0 0 24 24" id="content_copy">
    <path d="M0 0h24v24H0z" fill="none"></path>
    <path d="M16 1H4c-1.1 0-2 .9-2 2v14h2V3h12V1zm3 4H8c-1.1 0-2 .9-2 2v14c0 1.1.9 2 2 2h11c1.1 0 2-.9 2-2V7c0-1.1-.9-2-2-2zm0 16H8V7h11v14z"></path>
  </symbol>
  <symbol viewBox="0 0 24 24" id="control_point_duplicate">
    <path d="M0 0h24v24H0z" fill="none"></path>
    <path d="M16 8h-2v3h-3v2h3v3h2v-3h3v-2h-3zM2 12c0-2.79 1.64-5.2 4.01-6.32V3.52C2.52 4.76 0 8.09 0 12s2.52 7.24 6.01 8.48v-2.16C3.64 17.2 2 14.79 2 12zm13-9c-4.96 0-9 4.04-9 9s4.04 9 9 9 9-4.04 9-9-4.04-9-9-9zm0 16c-3.86 0-7-3.14-7-7s3.14-7 7-7 7 3.14 7 7-3.14 7-7 7z"></path>
  </symbol>
  <symbol viewBox="0 0 24 24" id="delete">
    <path d="M0 0h24v24H0z" fill="none"></path>
    <path d="M6 19c0 1.1.9 2 2 2h8c1.1 0 2-.9 2-2V7H6v12zM19 4h-3.5l-1-1h-5l-1 1H5v2h14V4z"></path>
  </symbol>
  <symbol viewBox="0 0 24 24" id="drag_indicator">
    <path d="M0 0h24v24H0V0z" fill="none"></path>
    <path d="M11 18c0 1.1-.9 2-2 2s-2-.9-2-2 .9-2 2-2 2 .9 2 2zm-2-8c-1.1 0-2 .9-2 2s.9 2 2 2 2-.9 2-2-.9-2-2-2zm0-6c-1.1 0-2 .9-2 2s.9 2 2 2 2-.9 2-2-.9-2-2-2zm6 4c1.1 0 2-.9 2-2s-.9-2-2-2-2 .9-2 2 .9 2 2 2zm0 2c-1.1 0-2 .9-2 2s.9 2 2 2 2-.9 2-2-.9-2-2-2zm0 6c-1.1 0-2 .9-2 2s.9 2 2 2 2-.9 2-2-.9-2-2-2z"></path>
  </symbol>
  <symbol viewBox="0 0 24 24" id="error">
    <path d="M0 0h24v24H0z" fill="none"></path>
    <path d="M12 2C6.48 2 2 6.48 2 12s4.48 10 10 10 10-4.48 10-10S17.52 2 12 2zm1 15h-2v-2h2v2zm0-4h-2V7h2v6z"></path>
  </symbol>
  <symbol viewBox="0 0 24 24" id="featured_play_list">
    <path d="M0 0h24v24H0V0z" fill="none"></path>
    <path d="M21 3H3c-1.1 0-2 .9-2 2v14c0 1.1.9 2 2 2h18c1.1 0 2-.9 2-2V5c0-1.1-.9-2-2-2zm-9 8H3V9h9v2zm0-4H3V5h9v2z"></path>
  </symbol>
  <symbol viewBox="0 0 24 24" id="find_in_page">
    <path d="M0 0h24v24H0z" fill="none"></path>
    <path d="M20 19.59V8l-6-6H6c-1.1 0-1.99.9-1.99 2L4 20c0 1.1.89 2 1.99 2H18c.45 0 .85-.15 1.19-.4l-4.43-4.43c-.8.52-1.74.83-2.76.83-2.76 0-5-2.24-5-5s2.24-5 5-5 5 2.24 5 5c0 1.02-.31 1.96-.83 2.75L20 19.59zM9 13c0 1.66 1.34 3 3 3s3-1.34 3-3-1.34-3-3-3-3 1.34-3 3z"></path>
  </symbol>
  <symbol viewBox="0 0 24 24" id="flag">
    <path d="M0 0h24v24H0z" fill="none"></path>
    <path d="M14.4 6L14 4H5v17h2v-7h5.6l.4 2h7V6z"></path>
  </symbol>
  <symbol viewBox="0 0 24 24" id="folder">
    <path d="M0 0h24v24H0z" fill="none"></path>
    <path d="M10 4H4c-1.1 0-1.99.9-1.99 2L2 18c0 1.1.9 2 2 2h16c1.1 0 2-.9 2-2V8c0-1.1-.9-2-2-2h-8l-2-2z"></path>
  </symbol>
  <symbol viewBox="0 0 24 24" id="folder_open">
    <path d="M0 0h24v24H0z" fill="none"></path>
    <path d="M20 6h-8l-2-2H4c-1.1 0-1.99.9-1.99 2L2 18c0 1.1.9 2 2 2h16c1.1 0 2-.9 2-2V8c0-1.1-.9-2-2-2zm0 12H4V8h16v10z"></path>
  </symbol>
  <symbol viewBox="0 0 24 24" id="history">
    <path d="M0 0h24v24H0z" fill="none"></path>
    <path d="M13 3c-4.97 0-9 4.03-9 9H1l3.89 3.89.07.14L9 12H6c0-3.87 3.13-7 7-7s7 3.13 7 7-3.13 7-7 7c-1.93 0-3.68-.79-4.94-2.06l-1.42 1.42C8.27 19.99 10.51 21 13 21c4.97 0 9-4.03 9-9s-4.03-9-9-9zm-1 5v5l4.28 2.54.72-1.21-3.5-2.08V8H12z"></path>
  </symbol>
  <symbol viewBox="0 0 24 24" id="https">
    <path d="M0 0h24v24H0z" fill="none"></path>
    <path d="M18 8h-1V6c0-2.76-2.24-5-5-5S7 3.24 7 6v2H6c-1.1 0-2 .9-2 2v10c0 1.1.9 2 2 2h12c1.1 0 2-.9 2-2V10c0-1.1-.9-2-2-2zm-6 9c-1.1 0-2-.9-2-2s.9-2 2-2 2 .9 2 2-.9 2-2 2zm3.1-9H8.9V6c0-1.71 1.39-3.1 3.1-3.1 1.71 0 3.1 1.39 3.1 3.1v2z"></path>
  </symbol>
  <symbol viewBox="0 0 24 24" id="info">
    <path d="M0 0h24v24H0z" fill="none"></path>
    <path d="M12 2C6.48 2 2 6.48 2 12s4.48 10 10 10 10-4.48 10-10S17.52 2 12 2zm1 15h-2v-6h2v6zm0-8h-2V7h2v2z"></path>
  </symbol>
  <symbol viewBox="0 0 24 24" id="input">
    <path d="M0 0h24v24H0z" fill="none"></path>
    <path d="M21 3.01H3c-1.1 0-2 .9-2 2V9h2V4.99h18v14.03H3V15H1v4.01c0 1.1.9 1.98 2 1.98h18c1.1 0 2-.88 2-1.98v-14c0-1.11-.9-2-2-2zM11 16l4-4-4-4v3H1v2h10v3z"></path>
  </symbol>
  <symbol viewBox="0 0 24 24" id="insert_drive_file">
    <path d="M0 0h24v24H0z" fill="none"></path>
    <path d="M6 2c-1.1 0-1.99.9-1.99 2L4 20c0 1.1.89 2 1.99 2H18c1.1 0 2-.9 2-2V8l-6-6H6zm7 7V3.5L18.5 9H13z"></path>
  </symbol>
  <symbol enable-background="new 0 0 24 24" viewBox="0 0 24 24" id="multiple_stop">
    <g>
      <rect fill="none" height="24" width="24"></rect>
      <path d="M17,4l4,4l-4,4V9h-4V7h4V4z M10,7C9.45,7,9,7.45,9,8s0.45,1,1,1s1-0.45,1-1S10.55,7,10,7z M6,7C5.45,7,5,7.45,5,8 s0.45,1,1,1s1-0.45,1-1S6.55,7,6,7z M7,17h4v-2H7v-3l-4,4l4,4V17z M14,17c0.55,0,1-0.45,1-1c0-0.55-0.45-1-1-1s-1,0.45-1,1 C13,16.55,13.45,17,14,17z M18,17c0.55,0,1-0.45,1-1c0-0.55-0.45-1-1-1s-1,0.45-1,1C17,16.55,17.45,17,18,17z"></path>
    </g>
  </symbol>
  <symbol viewBox="0 0 24 24" id="open_in_new">
    <path d="M0 0h24v24H0z" fill="none"></path>
    <path d="M19 19H5V5h7V3H5c-1.11 0-2 .9-2 2v14c0 1.1.89 2 2 2h14c1.1 0 2-.9 2-2v-7h-2v7zM14 3v2h3.59l-9.83 9.83 1.41 1.41L19 6.41V10h2V3h-7z"></path>
  </symbol>
</svg>