<svg xmlns="http://www.w3.org/2000/svg" version="1.1" xmlns:xlink="http://www.w3.org/1999/xlink" width="1804" height="1804"><svg xmlns="http://www.w3.org/2000/svg" xml:space="preserve" style="fill-rule:evenodd;clip-rule:evenodd;stroke-linejoin:round;stroke-miterlimit:2" viewBox="0 0 1804 1804"><path d="M0 0h1804v1804H0z" style="fill:none"></path><path d="m901.999 1000.81-181.978 196.66c-29.098 31.44-59.995 62.24-97.784 82.43l-.003.01c-71.971 38.46-161.02 36.17-237.272 7.1-60.655-23.13-113.904-61.87-165.609-101.12-42.718-32.42-85.435-64.84-128.152-97.26h-.003c-22.114-16.78-43.566-35.09-59.185-58.03l-.007-.02c-42.129-61.905-37.788-148.205-.129-212.936 34.629-59.524 95.906-100.016 147.084-141.615 44.6-36.26 92.316-68.408 141.072-98.836 55.228-34.477 116.646-77.309 185.089-81.618 65.019-4.097 127.336 24.623 183.884 56.968l.003.002C764.17 595.541 841.436 642.775 902 703.319c60.564-60.544 137.83-107.778 212.99-150.774v-.002c56.55-32.345 118.87-61.065 183.89-56.968 68.44 4.309 129.86 47.141 185.08 81.612 48.76 30.434 96.48 62.582 141.07 98.836 51.19 41.605 112.46 82.097 147.09 141.621 37.66 64.731 42 151.031-.13 212.936v.02c-15.62 22.94-37.07 41.25-59.19 58.03-42.72 32.42-85.43 64.84-128.15 97.26-51.71 39.25-104.96 77.99-165.61 101.12-76.25 29.07-165.3 31.36-237.27-7.1l-.01-.01c-37.79-20.19-68.68-50.99-97.78-82.43-60.66-65.56-121.319-131.11-181.981-196.66Z" style="fill:#fff"></path><path d="m1659.67 1018.62-128.16 97.26c-45.06 34.21-90.92 68.86-143.78 89.01-52.86 20.15-114.65 24.16-164.54-2.5-29.18-15.6-52.23-40.33-74.7-64.62-69.32-74.9-138.63-149.805-207.944-224.707-30.283-32.727-31.677-82.628-3.697-117.345 57.055-70.795 141.301-120.846 221.781-166.884 41.78-23.895 86.69-48.572 134.72-45.544 53.97 3.397 100.53 41.272 144.08 68.457 45.66 28.5 90.4 58.523 132.17 92.478 43.31 35.203 97.25 67.249 126.55 117.616 21.11 36.277 26.79 84.601 3.18 119.298-10.28 15.107-25.1 26.431-39.66 37.481ZM144.333 1018.62c-14.56-11.05-29.383-22.374-39.666-37.481-23.611-34.697-17.928-83.021 3.178-119.298 29.301-50.367 83.248-82.413 126.558-117.616 41.765-33.955 86.506-63.978 132.171-92.478 43.55-27.185 90.102-65.06 144.073-68.457 48.032-3.028 92.947 21.649 134.721 45.544 80.479 46.038 164.728 96.089 221.783 166.884 27.98 34.717 26.586 84.618-3.701 117.345L655.513 1137.77c-22.471 24.29-45.519 49.02-74.703 64.62-49.893 26.66-111.678 22.65-164.538 2.5-52.859-20.15-98.723-54.8-143.784-89.01-42.718-32.42-85.437-64.84-128.155-97.26Z" style="fill:#242830"></path><path d="M480.161 876.572c0-72.069 57.928-130.608 129.766-131.596.614-.008 1.228-.012 1.844-.012h.002c72.685 0 131.608 58.923 131.608 131.608s-58.923 131.608-131.608 131.608h-.002c-72.688 0-131.61-58.924-131.61-131.608ZM1060.62 876.572c0-72.069 57.93-130.608 129.76-131.596.62-.008 1.23-.012 1.85-.012 72.68 0 131.61 58.923 131.61 131.608s-58.93 131.608-131.61 131.608c-72.69 0-131.61-58.924-131.61-131.608Z" style="fill:#fff"></path><path d="M571.856 876.572c0-22.046 17.871-39.918 39.913-39.918h.002c.606 0 1.209.014 1.808.041 21.206.946 38.107 18.437 38.107 39.877 0 21.439-16.901 38.93-38.107 39.877-.599.027-1.202.04-1.808.04h-.002c-22.042 0-39.913-17.871-39.913-39.917ZM1152.31 876.572c0-22.046 17.87-39.918 39.92-39.918.61 0 1.21.014 1.81.041 21.2.946 38.1 18.437 38.1 39.877 0 21.439-16.9 38.93-38.1 39.877-.6.027-1.2.04-1.81.04-22.05 0-39.92-17.871-39.92-39.917Z" style="fill:#242830"></path></svg><style>@media (prefers-color-scheme: light) { :root { filter: none; } }
@media (prefers-color-scheme: dark) { :root { filter: none; } }
</style></svg>