<svg xmlns="http://www.w3.org/2000/svg" viewBox="0 0 1300 300"><style>.a{fill:#434857;stroke:#434857;}.b{fill:#f7f7f9;stroke:#f7f7f9;}.c{fill:#434857;}</style><path d="M1039.5 188.4c-10.5 8-21.1 16-31.6 24 -11.1 8.4-22.4 17-35.5 22 -13 5-28.3 6-40.6-0.6 -7.2-3.8-12.9-10-18.4-15.9 -17.1-18.5-34.2-37-51.3-55.4 -7.5-8.1-7.8-20.4-0.9-29 14.1-17.5 34.9-29.8 54.7-41.2 10.3-5.9 21.4-12 33.2-11.2 13.3 0.8 24.8 10.2 35.5 16.9 11.3 7 22.3 14.4 32.6 22.8 10.7 8.7 24 16.6 31.2 29 5.2 8.9 6.6 20.9 0.8 29.4C1046.7 182.8 1043.1 185.6 1039.5 188.4z" class="a"/><path d="M665.6 188.4c10.5 8 21.1 16 31.6 24 11.1 8.4 22.4 17 35.5 22 13 5 28.3 6 40.6-0.6 7.2-3.8 12.9-10 18.4-15.9 17.1-18.5 34.2-37 51.3-55.4 7.5-8.1 7.8-20.4 0.9-29 -14.1-17.5-34.9-29.8-54.7-41.2C779 86.3 767.9 80.2 756 81c-13.3 0.8-24.8 10.2-35.5 16.9 -11.3 7-22.3 14.4-32.6 22.8 -10.7 8.7-24 16.6-31.2 29 -5.2 8.9-6.6 20.9-0.8 29.4C658.4 182.8 662.1 185.6 665.6 188.4z" class="a"/><circle cx="781" cy="153.3" r="32.5" class="b"/><circle cx="924.2" cy="153.3" r="32.5" class="b"/><circle cx="780.8" cy="152.9" r="9.8" class="a"/><circle cx="924.4" cy="152.9" r="9.8" class="a"/><path d="M219 215.1h-23.3v-67.3c0-8.4-1.6-14.6-4.7-18.7 -3.2-4.1-8.1-6.2-14.8-6.2 -8.9 0-15.5 2.9-19.7 8.7 -4.2 5.8-6.3 15.5-6.3 29v54.3h-23.2V106h18.1l3.3 14.3h1.2c3-5.2 7.4-9.2 13.2-12 5.8-2.8 12.1-4.2 19-4.2 16.8 0 27.9 5.7 33.3 17.2h1.6c3.2-5.4 7.8-9.6 13.6-12.6 5.9-3 12.6-4.5 20.1-4.5 13 0 22.5 3.3 28.5 9.9 6 6.6 8.9 16.6 8.9 30.1v71.1h-23.2v-67.3c0-8.4-1.6-14.6-4.8-18.7 -3.2-4.1-8.1-6.2-14.8-6.2 -9 0-15.6 2.8-19.8 8.4 -4.2 5.6-6.3 14.3-6.3 25.9V215.1z" class="c"/><path d="M417 160.4c0 17.8-4.6 31.7-13.7 41.7 -9.1 10-21.9 15-38.2 15 -10.2 0-19.2-2.3-27-6.9 -7.8-4.6-13.8-11.2-18-19.8 -4.2-8.6-6.3-18.6-6.3-30 0-17.7 4.5-31.5 13.6-41.4 9.1-9.9 21.9-14.9 38.4-14.9 15.8 0 28.3 5.1 37.5 15.2C412.4 129.5 417 143.2 417 160.4zM337.6 160.4c0 25.2 9.3 37.8 27.9 37.8 18.4 0 27.6-12.6 27.6-37.8 0-24.9-9.3-37.4-27.8-37.4 -9.7 0-16.8 3.2-21.2 9.7C339.7 139.1 337.6 148.4 337.6 160.4z" class="c"/><path d="M487.6 217.1c-16.5 0-29-4.8-37.6-14.4 -8.6-9.6-12.9-23.5-12.9-41.5 0-18.3 4.5-32.5 13.5-42.3 9-9.9 21.9-14.8 38.9-14.8 11.5 0 21.9 2.1 31.1 6.4l-7 18.6c-9.8-3.8-17.9-5.7-24.3-5.7 -18.9 0-28.3 12.5-28.3 37.6 0 12.2 2.4 21.4 7.1 27.6 4.7 6.1 11.6 9.2 20.7 9.2 10.3 0 20.1-2.6 29.3-7.7v20.2c-4.1 2.4-8.6 4.2-13.3 5.2C500 216.6 494.3 217.1 487.6 217.1z" class="c"/><path d="M566 157.5l13.1-16.4 32.9-35.1h26.7l-43.9 46.9 46.7 62.2h-27.2l-35-47.8 -12.7 10.5v37.4h-23V61.7h23v74.9l-1.2 21H566z" class="c"/><path d="M1172.9 216.1h-23.3V149c0-8.4-1.7-14.7-5.1-18.8 -3.4-4.1-8.8-6.2-16.1-6.2 -9.8 0-17 2.9-21.5 8.7 -4.5 5.8-6.8 15.5-6.8 29.1v54.3H1077V107h18.1l3.3 14.3h1.2c3.3-5.2 8-9.2 14-12 6-2.8 12.8-4.2 20.1-4.2 26.2 0 39.3 13.3 39.3 39.9V216.1z" class="c"/></svg>
