<svg xmlns="http://www.w3.org/2000/svg" viewBox="0 0 512 512"><style>.a{fill:#434857;stroke:#434857;}.b{fill:#f7f7f9;stroke:#f7f7f9;}</style><path d="M493.3 292.5c-13.4 10.2-26.8 20.3-40.1 30.5 -14.1 10.7-28.5 21.6-45 27.9 -16.6 6.3-35.9 7.6-51.5-0.8 -9.1-4.9-16.4-12.6-23.4-20.2 -21.7-23.5-43.4-46.9-65.1-70.4 -9.5-10.2-9.9-25.9-1.2-36.7 17.9-22.2 44.3-37.8 69.5-52.3 13.1-7.5 27.1-15.2 42.2-14.3 16.9 1.1 31.5 12.9 45.1 21.4 14.3 8.9 28.3 18.3 41.4 29 13.6 11 30.5 21.1 39.6 36.8 6.6 11.4 8.4 26.5 1 37.4C502.5 285.5 497.8 289 493.3 292.5z" class="a"/><path d="M18.7 292.5c13.4 10.2 26.8 20.3 40.1 30.5 14.1 10.7 28.5 21.6 45 27.9s35.9 7.6 51.5-0.8c9.1-4.9 16.4-12.6 23.4-20.2 21.7-23.5 43.4-46.9 65.1-70.4 9.5-10.2 9.9-25.9 1.2-36.7 -17.9-22.2-44.3-37.8-69.5-52.3 -13.1-7.5-27.1-15.2-42.2-14.3 -16.9 1.1-31.5 12.9-45.1 21.4 -14.3 8.9-28.3 18.3-41.4 29 -13.6 11-30.5 21.1-39.6 36.8 -6.6 11.4-8.4 26.5-1 37.4C9.5 285.5 14.2 289 18.7 292.5z" class="a"/><circle cx="165.1" cy="248" r="41.2" class="b"/><circle cx="346.9" cy="248" r="41.2" class="b"/><circle cx="164.8" cy="247.5" r="12.5" class="a"/><circle cx="347.2" cy="247.5" r="12.5" class="a"/></svg>
