<svg id="e0wqx7xet6yk1" xmlns="http://www.w3.org/2000/svg" xmlns:xlink="http://www.w3.org/1999/xlink" viewBox="0 0 512 210" shape-rendering="geometricPrecision" text-rendering="geometricPrecision"><style><![CDATA[#e0wqx7xet6yk8_to {animation: e0wqx7xet6yk8_to__to 3200ms linear infinite normal forwards}@keyframes e0wqx7xet6yk8_to__to { 0% {transform: translate(12.799997px,13px);animation-timing-function: cubic-bezier(0,0,0.580000,1)} 12.500000% {transform: translate(12.799997px,-12px);animation-timing-function: cubic-bezier(0,0,0.580000,1)} 25% {transform: translate(12.799997px,-12px);animation-timing-function: cubic-bezier(0,0,0.580000,1)} 37.500000% {transform: translate(-12.800012px,13px);animation-timing-function: cubic-bezier(0,0,0.580000,1)} 50% {transform: translate(-12.800012px,13px);animation-timing-function: cubic-bezier(0,0,0.580000,1)} 62.500000% {transform: translate(-12.800012px,-12px);animation-timing-function: cubic-bezier(0,0,0.580000,1)} 75% {transform: translate(-12.800012px,-12px);animation-timing-function: cubic-bezier(0,0,0.580000,1)} 87.500000% {transform: translate(12.799997px,13px);animation-timing-function: cubic-bezier(0,0,0.580000,1)} 100% {transform: translate(12.799997px,13px)} }]]></style><g id="e0wqx7xet6yk2"><path id="e0wqx7xet6yk3" d="M493.300000,292.500000C479.900000,302.700000,466.500000,312.800000,453.200000,323C439.100000,333.700000,424.700000,344.600000,408.200000,350.900000C391.600000,357.200000,372.300000,358.500000,356.700000,350.100000C347.600000,345.200000,340.300000,337.500000,333.300000,329.900000C311.600000,306.400000,289.900000,283,268.200000,259.500000C258.700000,249.300000,258.300000,233.600000,267,222.800000C284.900000,200.600000,311.300000,185,336.500000,170.500000C349.600000,163,363.600000,155.300000,378.700000,156.200000C395.600000,157.300000,410.200000,169.100000,423.800000,177.600000C438.100000,186.500000,452.100000,195.900000,465.200000,206.600000C478.800000,217.600000,495.700000,227.700000,504.800000,243.400000C511.400000,254.800000,513.200000,269.900000,505.800000,280.800000C502.500000,285.500000,497.800000,289,493.300000,292.500000Z" transform="matrix(1 0 0 1 0 -151)" fill="rgb(37,40,48)" stroke="rgb(37,40,48)" stroke-width="1" stroke-miterlimit="10" /><path id="e0wqx7xet6yk4" d="M18.700000,292.500000C32.100000,302.700000,45.500000,312.800000,58.800000,323C72.900000,333.700000,87.300000,344.600000,103.800000,350.900000C120.300000,357.200000,139.700000,358.500000,155.300000,350.100000C164.400000,345.200000,171.700000,337.500000,178.700000,329.900000C200.400000,306.400000,222.100000,283,243.800000,259.500000C253.300000,249.300000,253.700000,233.600000,245,222.800000C227.100000,200.600000,200.700000,185,175.500000,170.500000C162.400000,163,148.400000,155.300000,133.300000,156.200000C116.400000,157.300000,101.800000,169.100000,88.200000,177.600000C73.900000,186.500000,59.900000,195.900000,46.800000,206.600000C33.200000,217.600000,16.300000,227.700000,7.200000,243.400000C0.600000,254.800000,-1.200000,269.900000,6.200000,280.800000C9.500000,285.500000,14.200000,289,18.700000,292.500000Z" transform="matrix(1 0 0 1 0 -151)" fill="rgb(37,40,48)" stroke="rgb(37,40,48)" stroke-width="1" stroke-miterlimit="10" /></g><g id="e0wqx7xet6yk5"><circle id="e0wqx7xet6yk6" r="41.200000" transform="matrix(1 0 0 1 165.09999999999999 97)" fill="rgb(255,255,255)" stroke="rgb(255,255,255)" stroke-width="1" stroke-miterlimit="10"/><circle id="e0wqx7xet6yk7" r="41.200000" transform="matrix(1 0 0 1 346.89999999999998 97)" fill="rgb(255,255,255)" stroke="rgb(255,255,255)" stroke-width="1" stroke-miterlimit="10"/></g><g id="e0wqx7xet6yk8_to" transform="translate(12.799997,13)"><g id="e0wqx7xet6yk8" transform="translate(0,0)"><circle id="e0wqx7xet6yk9" r="12.500000" transform="matrix(1 0 0 1 164.80000000000001 96.50000000000000)" fill="rgb(37,40,48)" stroke="rgb(37,40,48)" stroke-width="1" stroke-miterlimit="10"/><circle id="e0wqx7xet6yk10" r="12.500000" transform="matrix(1 0 0 1 347.19999999999999 96.50000000000000)" fill="rgb(37,40,48)" stroke="rgb(37,40,48)" stroke-width="1" stroke-miterlimit="10"/></g></g></svg>